<svg width="251" height="251" viewBox="0 0 251 251" fill="none" xmlns="http://www.w3.org/2000/svg">
<path d="M137.857 0.0153799C146.979 -0.0196228 156.101 0.0720536 165.22 0.290381L167.645 0.377881C170.445 0.477881 173.207 0.60288 176.545 0.75288C189.845 1.37788 198.92 3.47788 206.882 6.56538C215.132 9.74038 222.082 14.0404 229.032 20.9904C235.387 27.2355 240.305 34.7897 243.445 43.1279C246.532 51.0904 248.632 60.1779 249.257 73.4779C249.407 76.8029 249.532 79.5779 249.632 82.3779L249.707 84.8029C249.929 93.9178 250.025 103.035 249.995 112.153L250.007 121.478V137.853C250.038 146.975 249.942 156.096 249.72 165.215L249.645 167.64C249.545 170.44 249.42 173.203 249.27 176.54C248.645 189.84 246.52 198.915 243.445 206.878C240.315 215.225 235.396 222.785 229.032 229.028C222.782 235.382 215.224 240.3 206.882 243.44C198.92 246.528 189.845 248.628 176.545 249.253C173.207 249.403 170.445 249.528 167.645 249.628L165.22 249.703C156.101 249.925 146.979 250.021 137.857 249.99L128.532 250.003H112.17C103.048 250.034 93.9263 249.938 84.8072 249.715L82.3822 249.64C79.4148 249.533 76.4481 249.408 73.4822 249.265C60.1822 248.64 51.1072 246.515 43.1322 243.44C34.7908 240.307 27.2352 235.388 20.9947 229.028C14.6328 222.781 9.71001 215.222 6.56971 206.878C3.48221 198.915 1.38221 189.84 0.757212 176.54C0.617998 173.574 0.492997 170.608 0.382212 167.64L0.319714 165.215C0.0892585 156.096 -0.0149193 146.975 0.00721251 137.853V112.153C-0.0276746 103.035 0.0640019 93.9178 0.282213 84.8029L0.369713 82.3779C0.469713 79.5779 0.594713 76.8029 0.744713 73.4779C1.36971 60.1654 3.46971 51.1029 6.55721 43.1279C9.69937 34.7856 14.6318 27.2334 21.0072 21.0029C27.2434 14.6373 34.7942 9.71004 43.1322 6.56538C51.1072 3.47788 60.1697 1.37788 73.4822 0.75288L82.3822 0.377881L84.8072 0.315382C93.922 0.0850422 103.04 -0.0191356 112.157 0.00288085L137.857 0.0153799ZM125.007 62.5154C116.726 62.3983 108.504 63.9282 100.819 67.0162C93.1347 70.1043 86.1403 74.6889 80.2428 80.5036C74.3453 86.3183 69.6622 93.2471 66.4658 100.887C63.2694 108.528 61.6234 116.727 61.6234 125.009C61.6234 133.291 63.2694 141.491 66.4658 149.131C69.6622 156.771 74.3453 163.7 80.2428 169.515C86.1403 175.329 93.1347 179.914 100.819 183.002C108.504 186.09 116.726 187.62 125.007 187.503C141.583 187.503 157.48 180.918 169.201 169.197C180.922 157.476 187.507 141.579 187.507 125.003C187.507 108.427 180.922 92.5297 169.201 80.8087C157.48 69.0877 141.583 62.5154 125.007 62.5154ZM125.007 87.5154C129.989 87.4236 134.938 88.3253 139.567 90.168C144.196 92.0106 148.411 94.7572 151.967 98.2472C155.522 101.737 158.347 105.901 160.275 110.495C162.204 115.089 163.197 120.021 163.198 125.003C163.199 129.985 162.207 134.917 160.28 139.512C158.353 144.106 155.53 148.271 151.976 151.762C148.422 155.253 144.207 158.001 139.579 159.845C134.95 161.69 130.001 162.593 125.02 162.503C115.074 162.503 105.536 158.552 98.5032 151.519C91.4706 144.487 87.5197 134.949 87.5197 125.003C87.5197 115.057 91.4706 105.519 98.5032 98.4864C105.536 91.4538 115.074 87.5029 125.02 87.5029L125.007 87.5154ZM190.632 43.7654C186.6 43.9268 182.786 45.6423 179.99 48.5525C177.194 51.4628 175.632 55.3421 175.632 59.3779C175.632 63.4137 177.194 67.293 179.99 70.2032C182.786 73.1135 186.6 74.829 190.632 74.9904C194.776 74.9904 198.751 73.3442 201.681 70.4139C204.611 67.4837 206.257 63.5094 206.257 59.3654C206.257 55.2214 204.611 51.2471 201.681 48.3168C198.751 45.3866 194.776 43.7404 190.632 43.7404V43.7654Z" fill="#121212"/>
</svg>
