<svg width="235" height="235" viewBox="0 0 235 235" fill="none" xmlns="http://www.w3.org/2000/svg">
<path d="M234.234 177.044C232.145 192.924 224.347 207.499 212.296 218.049C200.245 228.599 184.766 234.401 168.75 234.373C75.7032 234.373 0.000106039 158.67 0.000106039 65.6226C-0.0286047 49.6065 5.77378 34.1276 16.3235 22.0769C26.8733 10.0262 41.449 2.22779 57.3282 0.138254C61.3437 -0.352048 65.4101 0.469448 68.9203 2.48011C72.4305 4.49077 75.1963 7.58276 76.8048 11.2945L101.555 66.5484V66.689C102.786 69.5303 103.295 72.6323 103.035 75.7181C102.775 78.8038 101.756 81.7772 100.067 84.3726C99.8556 84.689 99.6329 84.982 99.3985 85.275L75.0001 114.197C83.7775 132.033 102.434 150.525 120.504 159.326L149.027 135.056C149.308 134.821 149.601 134.602 149.906 134.4C152.5 132.67 155.483 131.615 158.587 131.328C161.691 131.042 164.818 131.534 167.684 132.759L167.836 132.83L223.043 157.568C226.761 159.171 229.861 161.934 231.878 165.445C233.895 168.956 234.722 173.025 234.234 177.044Z" fill="#121212"/>
</svg>
