<svg width="262" height="213" viewBox="0 0 262 213" fill="none" xmlns="http://www.w3.org/2000/svg">
<path d="M261.5 25C251.875 29.375 241.5 32.25 230.75 33.625C241.75 27 250.25 16.5 254.25 3.875C243.875 10.125 232.375 14.5 220.25 17C210.375 6.25 196.5 0 180.75 0C151.375 0 127.375 24 127.375 53.625C127.375 57.875 127.875 62 128.75 65.875C84.25 63.625 44.625 42.25 18.25 9.875C13.625 17.75 11 27 11 36.75C11 55.375 20.375 71.875 34.875 81.25C26 81.25 17.75 78.75 10.5 75V75.375C10.5 101.375 29 123.125 53.5 128C45.6341 130.153 37.3762 130.452 29.375 128.875C32.7701 139.531 39.4192 148.855 48.3877 155.537C57.3562 162.218 68.1931 165.921 79.375 166.125C60.4204 181.13 36.925 189.241 12.75 189.125C8.5 189.125 4.25 188.875 0 188.375C23.75 203.625 52 212.5 82.25 212.5C180.75 212.5 234.875 130.75 234.875 59.875C234.875 57.5 234.875 55.25 234.75 52.875C245.25 45.375 254.25 35.875 261.5 25Z" fill="#121212"/>
</svg>
