<svg width="474" height="87" viewBox="0 0 474 87" fill="none" xmlns="http://www.w3.org/2000/svg">
<path d="M11.0247 43.2656C11.8372 65.4479 25.681 81.4271 51.6289 81.4271C73.1029 81.4271 86.2331 72.0625 88.3685 54.0521C88.7747 50.6927 88.1654 47.5365 85.1133 47.3333C81.655 47.1302 80.8372 50.4896 80.431 53.3385C78.5977 65.1458 70.5612 72.2656 60.2799 72.2656C44.3008 72.2656 38.3008 59.2396 36.5664 44.9948C34.332 26.1667 36.3633 12.6302 47.1549 11.3073C54.582 10.3906 61.5039 13.1406 60.5872 25.6563C59.8737 35.3229 66.8945 39.8021 75.6497 39.0885C86.2331 38.276 87.8633 28.099 85.5195 21.9948C81.6549 11.5104 69.5404 5 51.0195 5C25.0664 5 10.3112 20.0573 11.0247 43.2656Z" fill="black"/>
<path d="M94.6151 81.4271H126.162C128.297 81.4271 129.214 78.2708 127.485 77.0521C126.876 76.6458 126.266 76.2344 125.756 75.9323C124.126 74.9114 123.11 73.1823 123.11 71.4531V17.6146C123.11 15.8854 124.126 14.1562 125.756 13.1406C126.266 12.8333 126.876 12.4271 127.485 12.0208C129.214 10.7969 128.297 7.64581 126.162 7.64581H94.6151C92.5786 7.64581 91.662 10.7969 93.3911 12.0208C93.9015 12.4271 94.6151 12.8333 95.4276 13.2396C97.0578 14.0573 98.1776 15.7864 98.1776 17.6146V71.4531C98.1776 73.2864 97.0578 75.0156 95.4276 75.8281C94.6151 76.2344 93.9015 76.6458 93.3911 77.0521C91.662 78.2708 92.5786 81.4271 94.6151 81.4271Z" fill="black"/>
<path d="M133.304 12.2239C133.809 12.6302 134.523 13.0364 135.335 13.4427C136.966 14.2604 138.085 15.9896 138.085 17.8229V71.4531C138.085 73.2864 136.966 75.0156 135.335 75.8281C134.523 76.2344 133.809 76.6458 133.304 77.0521C131.57 78.2708 132.486 81.4271 134.523 81.4271H195.075C196.908 81.4271 198.434 80.2083 198.841 78.4739C199.554 75.7291 200.575 71.5573 201.08 67.8906C201.591 65.1458 200.065 63.6198 198.132 63.6198C196.705 63.6198 195.179 64.4323 194.059 66.1614C191.309 70.3333 189.783 75.3229 179.2 75.3229H166.075C164.242 75.3229 163.018 74.0989 163.018 72.2656V46.2135H170.346C183.575 46.2135 179.101 54.3541 183.679 54.7656C188.971 55.2708 189.58 31.0521 184.19 31.2552C179.304 31.4583 183.575 40.2083 170.346 40.2083H163.018V17.0052C163.018 15.1771 164.242 13.9531 166.075 13.9531H177.164C187.747 13.9531 189.278 19.0416 192.023 23.2135C193.143 24.8437 194.669 25.6562 195.992 25.6562C197.924 25.6562 199.455 24.2344 199.044 21.3802C198.434 17.7187 197.518 13.6458 196.809 10.901C196.398 9.06769 194.773 7.84894 192.94 7.84894H134.523C132.486 7.84894 131.57 11 133.304 12.2239Z" fill="black"/>
<path d="M206.094 12.3229C206.599 12.6302 207.312 13.0364 208.125 13.4427C209.755 14.3594 210.875 16.0885 210.875 17.9219V71.8594C210.672 73.4896 209.656 75.1198 208.125 75.8281C207.417 76.2344 206.599 76.6458 206.094 77.0521C204.359 78.2708 205.276 81.4271 207.417 81.4271H238.865C241 81.4271 241.917 78.2708 240.187 77.0521C239.573 76.6458 239.068 76.2344 238.453 75.9323C236.828 74.9114 235.807 73.1823 235.807 71.4531V51.2031H237.948C243.036 51.3021 247.005 52.7291 251.786 63.5156L255.042 71.1458H254.943L255.245 71.7604C255.958 73.4896 255.453 75.1198 253.719 75.9323C253.109 76.3385 252.396 76.6458 251.891 77.0521C250.156 78.2708 251.073 81.4271 253.214 81.4271H288.12C290.255 81.4271 291.172 78.2708 289.443 77.0521C288.932 76.7448 288.526 76.5416 288.016 76.3385C286.286 75.7291 284.656 74.3021 283.844 72.5729L278.042 60.3594C274.99 52.8281 270.714 49.0625 266.745 48.3541C278.859 44.9948 285.88 38.8854 285.88 29.7291C285.88 15.0729 268.068 7.74477 239.979 7.84893L207.312 7.94789C205.276 7.94789 204.359 11.1041 206.094 12.3229ZM235.807 17.1094C235.807 15.276 237.031 13.9531 238.865 13.9531C254.125 14.0573 260.948 19.0416 260.948 29.8281C260.948 40.5156 253.922 45.0937 238.865 45.0937C237.031 45.0937 235.807 43.875 235.807 42.0416V17.1094Z" fill="black"/>
<path d="M295.262 12.3229C295.767 12.6302 296.481 13.0364 297.293 13.4427C298.924 14.3594 300.043 16.0885 300.043 17.9219V71.8594C299.84 73.4896 298.825 75.1198 297.293 75.8281C296.585 76.2344 295.767 76.6458 295.262 77.0521C293.528 78.2708 294.444 81.4271 296.585 81.4271H328.033C330.168 81.4271 331.085 78.2708 329.356 77.0521C328.741 76.6458 328.236 76.2344 327.622 75.9323C325.997 74.9114 324.976 73.1823 324.976 71.4531V51.2031H327.116C332.205 51.3021 336.174 52.7291 340.955 63.5156L344.21 71.1458H344.111L344.413 71.7604C345.127 73.4896 344.622 75.1198 342.887 75.9323C342.278 76.3385 341.564 76.6458 341.059 77.0521C339.325 78.2708 340.241 81.4271 342.382 81.4271H377.288C379.424 81.4271 380.34 78.2708 378.611 77.0521C378.101 76.7448 377.694 76.5416 377.184 76.3385C375.455 75.7291 373.825 74.3021 373.012 72.5729L367.21 60.3594C364.158 52.8281 359.882 49.0625 355.913 48.3541C368.028 44.9948 375.049 38.8854 375.049 29.7291C375.049 15.0729 357.236 7.74477 329.148 7.84893L296.481 7.94789C294.444 7.94789 293.528 11.1041 295.262 12.3229ZM324.976 17.1094C324.976 15.276 326.2 13.9531 328.033 13.9531C343.293 14.0573 350.116 19.0416 350.116 29.8281C350.116 40.5156 343.09 45.0937 328.033 45.0937C326.2 45.0937 324.976 43.875 324.976 42.0416V17.1094Z" fill="black"/>
<path d="M377.426 12.125C378.035 12.5313 378.749 12.9375 379.358 13.3438C380.988 14.2604 382.717 15.6875 383.733 17.1094L408.259 55.375V71.4583C408.259 73.2865 407.139 75.0156 405.514 75.8333C404.696 76.2396 403.988 76.6458 403.478 77.0521C401.749 78.276 402.665 81.4271 404.696 81.4271H436.249C438.285 81.4271 439.301 78.276 437.571 77.0521C436.957 76.6458 436.348 76.2396 435.842 75.9323C434.212 74.9167 433.196 73.1875 433.196 71.4583V54.8698L455.176 17.1094C455.889 15.9896 457.311 14.6667 459.452 13.4479C460.165 13.0417 460.67 12.6302 461.384 12.125C463.113 10.901 462.196 7.75 460.061 7.75H446.118C444.082 7.75 443.165 10.901 444.9 12.125C445.306 12.3281 445.712 12.6302 446.223 12.9375C447.644 13.8542 448.155 15.7865 447.238 17.5156L430.853 46.0156L413.858 18.1302H413.957L413.655 17.6198C412.738 16.1927 412.842 14.2604 413.957 12.7344C414.165 12.5312 414.368 12.3281 414.571 12.125C416.301 10.901 415.384 7.75 413.347 7.75H378.749C376.608 7.75 375.691 10.901 377.426 12.125Z" fill="black"/>
</svg>
